# xmcd
#
# Track frame offsets:
#	150
#	16419
#	31178
#	48907
#	64401
#	80200
#	96528
#	112884
#	126137
#	144861
#	159702
#	177390
#	192101
#	209178
#	227610
#	245167
#	258680
#	273829
#	292902
#	306696
#	324414
#
# Disc length: 4546 seconds
#
# Revision: 0
# Processed by: cddbd v1.5.2PL0 Copyright (c) Steve Scherf et al.
# Submitted via: EasyCDDAExtractor 11.5.0.1
#
DISCID=3f11c015
DTITLE=Various Artist - NCT 099
DYEAR=2007
DGENRE=Country
TTITLE0=Toby Keith - Love Me If You Can
TTITLE1=Brooks and Dunn - Proud Of The House We Built
TTITLE2=Pat Green - Way Back Texas
TTITLE3=Kenny Chesney - Never Wanted Nothing More
TTITLE4=Sara Evans - As If
TTITLE5=Blake Shelton - The More I Drink
TTITLE6=Montgomery Gentry - What Do Ya Think About That
TTITLE7=Danielle Peck - Bad For Me
TTITLE8=Tim McGraw - If You're Reading This
TTITLE9=Lisa Shaffer - Just One
TTITLE10=Clint Black - The Strong One
TTITLE11=Andy Griggs - Tattoo Rose
TTITLE12=Carmen Rasmusen - Nothin' Like The Summer
TTITLE13=Billy Currington - Tangled Up
TTITLE14=Alison Kraus and Union Station - Simple Love
TTITLE15=Big and Rich - Loud
TTITLE16=Crossin Dixon - Guitar Slinger
TTITLE17=Cook and Glen - Shining Star
TTITLE18=Waycross - Nineteen
TTITLE19=Adam Hood - 22 Days Too Long
TTITLE20=Flynnville Train - Nowhere Than Somewhere
EXTD=
EXTT0=
EXTT1=
EXTT2=
EXTT3=
EXTT4=
EXTT5=
EXTT6=
EXTT7=
EXTT8=
EXTT9=
EXTT10=
EXTT11=
EXTT12=
EXTT13=
EXTT14=
EXTT15=
EXTT16=
EXTT17=
EXTT18=
EXTT19=
EXTT20=
PLAYORDER=
